<svg xmlns="http://www.w3.org/2000/svg" width="24" height="24" fill="none">
  <path fill="#878BAB" stroke="#878BAB" d="M12.01 21a.183.183 0 0 1 0-.366 8.63 8.63 0 0 0 4.313-1.158.183.183 0 1 1 .183.317A8.998 8.998 0 0 1 12.01 21ZM7.6 19.826a.185.185 0 0 1-.091-.024 9.048 9.048 0 0 1-3.298-3.288.183.183 0 0 1 .317-.183 8.677 8.677 0 0 0 3.164 3.154.183.183 0 0 1-.092.341Zm12.04-3.236a.183.183 0 0 1-.158-.274A8.637 8.637 0 0 0 20.635 12v-.037a.183.183 0 0 1 .365 0v.032a9.001 9.001 0 0 1-1.203 4.503.182.182 0 0 1-.158.092ZM3.183 12.192c-.101 0-.183-.072-.183-.174h.183L3 12.01c0-1.585.412-3.135 1.193-4.492a.183.183 0 0 1 .317.182A8.635 8.635 0 0 0 3.365 12c0 .101-.081.192-.182.192ZM19.62 7.745a.183.183 0 0 1-.158-.091 8.682 8.682 0 0 0-3.171-3.148.183.183 0 0 1 .182-.317 9.045 9.045 0 0 1 3.305 3.28.182.182 0 0 1-.158.276ZM7.57 4.558a.183.183 0 0 1-.092-.341A8.999 8.999 0 0 1 11.972 3a.183.183 0 1 1 0 .365 8.631 8.631 0 0 0-4.31 1.168.176.176 0 0 1-.092.025Z"/>
</svg>
