<svg width="24" height="24" viewBox="0 0 24 24" fill="none" xmlns="http://www.w3.org/2000/svg">
<path d="M12.0093 21C11.9084 21 11.8266 20.9181 11.8266 20.8173C11.8266 20.7168 11.9084 20.6345 12.0093 20.6345C13.5265 20.6331 15.018 20.2325 16.3232 19.4763C16.4095 19.4255 16.522 19.4544 16.5732 19.5429C16.624 19.6302 16.594 19.742 16.5067 19.7928C15.1456 20.5812 13.5912 20.9985 12.0093 21ZM7.60115 19.8261C7.57008 19.8261 7.53902 19.8184 7.50978 19.802C6.14394 19.014 5.00398 17.877 4.21233 16.5142C4.16153 16.4272 4.1915 16.315 4.27885 16.2642C4.36693 16.2137 4.47804 16.2433 4.52884 16.3307C5.28833 17.6384 6.38224 18.7293 7.69289 19.4851C7.78024 19.5359 7.81021 19.6474 7.75977 19.7351C7.72578 19.7932 7.66438 19.8261 7.60115 19.8261ZM19.6393 16.5898C19.6082 16.5898 19.5768 16.5821 19.5479 16.5653C19.4606 16.5149 19.4306 16.4034 19.481 16.3157C20.2354 15.0099 20.6345 13.5176 20.6345 12.0002L20.6341 11.9633C20.6341 11.8624 20.716 11.7805 20.8169 11.7805C20.9178 11.7805 20.9996 11.8624 20.9996 11.9633L21 11.9947C21 13.5816 20.5841 15.1371 19.7972 16.4981C19.7635 16.5569 19.7021 16.5898 19.6393 16.5898ZM3.18275 12.1921C3.08187 12.1921 3 12.1197 3 12.0185H3.18275L3 12.0104C2.99963 10.4254 3.41227 8.87537 4.19332 7.518C4.24413 7.43065 4.3556 7.40068 4.44295 7.45075C4.53031 7.50119 4.56064 7.61266 4.5102 7.70037C3.76132 9.00256 3.36549 10.4893 3.36549 12.0002C3.36549 12.1011 3.28399 12.1921 3.18275 12.1921ZM19.621 7.74459C19.5581 7.74459 19.4971 7.71207 19.4631 7.65396C18.7003 6.34738 17.6035 5.259 16.2918 4.50612C16.2044 4.45605 16.1741 4.34422 16.2241 4.2565C16.2746 4.16879 16.3853 4.13919 16.4738 4.18889C17.8407 4.9732 18.9836 6.10763 19.7785 7.46939C19.8297 7.55637 19.8001 7.66821 19.7127 7.71938C19.6839 7.73655 19.6524 7.74459 19.621 7.74459ZM7.56972 4.55802C7.50685 4.55802 7.44545 4.52549 7.41146 4.46702C7.36066 4.38003 7.39026 4.2682 7.47761 4.21703C8.8365 3.42578 10.3906 3.00512 11.9717 3C12.0722 3 12.1544 3.0815 12.1548 3.18237C12.1552 3.28324 12.0736 3.36511 11.9724 3.36547C10.4556 3.37023 8.96479 3.77371 7.66109 4.5328C7.63258 4.54998 7.60115 4.55802 7.56972 4.55802Z" fill="#4E4ED8" stroke="#4E4ED8"/>
</svg>
